<svg xmlns="http://www.w3.org/2000/svg">
  <svg id="exit" viewBox="0 0 60 60">
    <path d="m51.13 15.94-7.07-7.07L30 22.93 15.94 8.87l-7.07 7.07L22.93 30 8.87 44.06l7.07 7.07L30 37.07l14.06 14.06 7.07-7.07L37.07 30l14.06-14.06z" />
  </svg>

  <svg id="restart" viewBox="0 0 60 60">
    <path d="M53.59 24.56a23.61 23.61 0 0 1-19.44 23.23v11.09L15.71 43.46l18.44-15.92v10.64a14.23 14.23 0 1 0-15.42-4.91L11.34 39a23.59 23.59 0 1 1 42.25-14.44Z"/>
  </svg>

  <svg id="moves" viewBox="0 0 60 70">
    <path d="M57.37 29.63A27.37 27.37 0 1 0 12.52 50.7l17.57 17 19.1-18.53h-.07a27.27 27.27 0 0 0 8.25-19.54ZM30.09 13.29l16.48 23.63H35.3V47.5H24.88V36.92H13.61Z" />
  </svg>

  <svg id="star" viewBox="0 0 60 60">
    <path d="m32.25 12 4.21 8.87a2.45 2.45 0 0 0 1.93 1.4l9.74 1.27a2.49 2.49 0 0 1 1.39 4.28l-7.14 6.75a2.47 2.47 0 0 0-.73 2.26l1.8 9.66a2.49 2.49 0 0 1-3.64 2.64l-8.62-4.7a2.46 2.46 0 0 0-2.38 0l-8.62 4.7a2.49 2.49 0 0 1-3.64-2.64l1.8-9.66a2.47 2.47 0 0 0-.73-2.26l-7.14-6.75a2.49 2.49 0 0 1 1.39-4.28l9.74-1.27a2.45 2.45 0 0 0 1.93-1.4L27.75 12a2.49 2.49 0 0 1 4.5 0Z" />
  </svg>

  <svg id="wood" viewBox="0 0 85 50">
    <path d="m66.2 13.5 3.3-9.9L65 2l-6.6 11.5H18.9c6 0 11.2 3 14.3 7.6-3.1-4.6-8.3-7.6-14.3-7.6-9.5 0-17.2 7.7-17.2 17.2C1.7 40.3 9.4 48 18.9 48c6 0 11.2-3 14.3-7.6C30.1 45 24.9 48 18.9 48h47.2c9.5 0 17.2-7.7 17.2-17.2 0-9.6-7.6-17.3-17.1-17.3zM35.4 25.6c-.2-.5-.4-1.1-.6-1.6.2.5.4 1.1.6 1.6zm-.9-2.3c-.2-.5-.5-1-.8-1.5.2.5.5 1 .8 1.5zM18.9 45.6C10.7 45.6 4 38.9 4 30.7s6.7-14.9 14.9-14.9 14.9 6.7 14.9 14.9-6.7 14.9-14.9 14.9zm15.9-8.1c.2-.5.4-1 .6-1.6-.2.5-.4 1-.6 1.6zm1.4-6.8c0-.6 0-1.2-.1-1.8-.1-.9-.2-1.7-.5-2.5.2.8.4 1.7.5 2.5 0 .7.1 1.3.1 1.8z"/>
    <path d="M18.9 20.3c-5.8 0-10.4 4.7-10.4 10.4s4.7 10.4 10.4 10.4c5.8 0 10.4-4.7 10.4-10.4s-4.6-10.4-10.4-10.4zm0 18.5c-4.4 0-8-3.6-8-8s3.6-8 8-8 8 3.6 8 8-3.6 8-8 8z"/>
    <path d="M18.9 27.1c-2 0-3.7 1.6-3.7 3.7 0 2 1.6 3.7 3.7 3.7s3.7-1.6 3.7-3.7-1.7-3.7-3.7-3.7zm0 4.9c-.7 0-1.3-.6-1.3-1.3 0-.7.6-1.3 1.3-1.3.7 0 1.3.6 1.3 1.3 0 .8-.6 1.3-1.3 1.3z"/>
  </svg>
</svg>