<svg id="Logo" xmlns="http://www.w3.org/2000/svg" viewBox="0 0 519.96 304.94"><defs><style>.cls-1{opacity:.6}.cls-2{fill:#fecd2e}.cls-3{fill:#fff}</style></defs><g class="cls-1"><path class="cls-2" d="M223 145.86c.2 3.41 1.55 6.59 4.8 8.09 3.1 1.44 6.82.85 9.86 2.41 3.5 1.8 4.12 6.31 6.92 8.86s6.72 2 9.27-.7a9.92 9.92 0 0 0 2.36-9.88c-1.35-3.65-5.08-4.22-8.21-5.69a6.38 6.38 0 0 1-3.93-5c-.31-2.31.29-4.63.2-7a6.22 6.22 0 0 0-5.67-6.35 14.49 14.49 0 0 0-10.49 2.83 13.88 13.88 0 0 0-5.11 12.43c.07.53.91.54.85 0a13.11 13.11 0 0 1 4.15-11.17 13.64 13.64 0 0 1 9-3.35 7.67 7.67 0 0 1 4.37 1.07 5.65 5.65 0 0 1 2.17 4.9c0 3.53-1.18 7.43 1.39 10.4 2.13 2.45 5.57 2.64 8.19 4.3 3.4 2.15 3.42 6.69 1.67 9.94-1.89 3.51-6.35 5.65-9.62 2.56-2.45-2.31-3.13-5.91-5.75-8.07-2.34-1.93-5.67-1.9-8.52-2.45a8.58 8.58 0 0 1-5-2.54 9 9 0 0 1-1.94-5.59c-.1-.54-.96-.55-.96 0Z"/><path class="cls-2" d="M225.56 125.66c-8.77 5.3-13.3 16.52-9.72 26.31a12.24 12.24 0 0 0 4.2 5.83c2.53 1.91 5.56 2.89 8.42 4.19a33 33 0 0 1 7.52 4.63c2.27 1.9 4.23 4.17 6.58 6 4.61 3.52 10.44 4.38 15.63 1.58a17.28 17.28 0 0 0 8.37-11.47 14.05 14.05 0 0 0-3.67-13.44c-2-1.94-4.31-3.46-6.14-5.54-2.27-2.58-3.38-5.66-4.6-8.8-1.12-2.9-2.28-6-4.28-8.44a11.1 11.1 0 0 0-6.66-3.83 23.57 23.57 0 0 0-15.65 3 .42.42 0 0 0 .43.73 23.48 23.48 0 0 1 13.46-3.13 11.28 11.28 0 0 1 6.41 2.38c2.11 1.78 3.29 4.31 4.36 6.79 1.16 2.66 2 5.48 3.31 8.06a20.15 20.15 0 0 0 4.64 5.82 39.19 39.19 0 0 1 5.44 5 12.06 12.06 0 0 1 2.51 6.89 17.17 17.17 0 0 1-5.12 12.91 13.23 13.23 0 0 1-15.71 2.22c-2.54-1.4-4.47-3.51-6.58-5.47a37.17 37.17 0 0 0-5.91-4.6 50.8 50.8 0 0 0-7.09-3.41 17.58 17.58 0 0 1-7-4.48c-3.37-4-3.81-10.6-2.62-15.47a22 22 0 0 1 10-13.53.42.42 0 0 0-.53-.73Z"/><path class="cls-2" d="M221.77 118.75c-11.17 6.61-17.91 20.28-14.62 33.12a20.91 20.91 0 0 0 3.64 7.94c2.42 3 6 4.88 9.35 6.68 7.46 4.07 13.19 10.51 20.38 15A23.58 23.58 0 0 0 261 184a24.72 24.72 0 0 0 14.15-13.76c2.54-6 2.91-13.12-.12-19-1.67-3.25-4.2-5.89-6.44-8.73a50.54 50.54 0 0 1-6.16-11.18c-3-6.73-8.41-13.4-15.57-15.9-6.62-2.31-14.36-1.26-20.75 1.27a33.92 33.92 0 0 0-4.38 2.11.42.42 0 0 0 .43.73 33.28 33.28 0 0 1 19.65-4.35c7.37.77 13.59 5.76 17.5 11.89 2.15 3.37 3.36 7.26 5.25 10.77a52.44 52.44 0 0 0 6 8.33 24.53 24.53 0 0 1 5.17 9.11 21.58 21.58 0 0 1 .21 9.66 24.69 24.69 0 0 1-10.46 15.91 22.29 22.29 0 0 1-21.09 1.78c-6.92-3-12.19-8.74-18.14-13.18-5.77-4.31-13.65-6.49-16.81-13.51-5.24-11.63-.9-25.47 8.62-33.5a29.91 29.91 0 0 1 4.14-2.91.42.42 0 0 0-.43-.79Z"/><path class="cls-2" d="M218 111.83c-13.83 8.08-23 25.07-19.12 41.11a29.79 29.79 0 0 0 4.13 10c2.63 3.79 7 6.31 10.8 8.71a51 51 0 0 1 6.79 5c1.93 1.73 3.72 3.6 5.58 5.4a52.85 52.85 0 0 0 12.78 9.11 33.79 33.79 0 0 0 25.81 2.23 33 33 0 0 0 19.18-16.79c3.67-7.44 4.81-16.41 1.89-24.3-1.64-4.42-4.43-8.21-6.93-12.15-2.86-4.51-4.68-9.43-6.74-14.32a30.75 30.75 0 0 0-3.58-6.63 25 25 0 0 0-4.94-4.81 42.11 42.11 0 0 0-12.74-6.93c-8.73-2.74-18.62-1.64-27 1.63a43.72 43.72 0 0 0-5.86 2.8.42.42 0 0 0 .42.73 44 44 0 0 1 25.87-5.63 33.67 33.67 0 0 1 13.32 4.37c4.12 2.35 8.36 5.31 11 9.33s4.1 9 6.11 13.49c1.88 4.19 4.5 7.86 6.92 11.74a30.49 30.49 0 0 1 4.82 12.57 30.89 30.89 0 0 1-1.05 12A32.79 32.79 0 0 1 270.14 190a32.31 32.31 0 0 1-25.89 2.39 45.53 45.53 0 0 1-12.54-6.75c-4-3-7.26-6.85-11.05-10.12s-8-5.44-11.95-8.33a21.62 21.62 0 0 1-5-4.74 24.12 24.12 0 0 1-2.63-5.19c-5.58-14.72.19-31.24 12.07-41.09a39.22 39.22 0 0 1 5.24-3.64.42.42 0 0 0-.39-.7Z"/><path class="cls-2" d="M214.19 104.91c-16.45 9.54-28.05 29.88-23.61 49.09a40.24 40.24 0 0 0 4.42 11.56c2.85 4.76 7.85 7.87 12.33 10.94a58.77 58.77 0 0 1 7.64 6c2.3 2.2 4.34 4.64 6.49 7a45.91 45.91 0 0 0 46.6 13.36 41.66 41.66 0 0 0 24.15-19.28c5-8.83 7-19.6 4.37-29.5-1.5-5.66-4.56-10.67-7.36-15.75a66 66 0 0 1-4.13-8.86c-1.14-3-2.12-6.14-3.29-9.16a33.74 33.74 0 0 0-4-7.83 23.94 23.94 0 0 0-6.16-5.67 58.13 58.13 0 0 0-16.5-7.47c-10.93-3-23-1.93-33.53 2.11a52.91 52.91 0 0 0-7.38 3.49.42.42 0 0 0 .42.73 55.65 55.65 0 0 1 32.4-7 51.1 51.1 0 0 1 16.93 4.81c5.29 2.5 10.7 5.54 13.92 10.59s4.68 11.24 6.89 16.86c2.1 5.32 5.21 10.09 7.78 15.18a37.55 37.55 0 0 1 4.32 15.53 39.46 39.46 0 0 1-2.31 14.72 41 41 0 0 1-19.83 22.85 43 43 0 0 1-31.59 2.83 46.33 46.33 0 0 1-15.5-7.85c-4.78-3.78-8.26-8.86-12.72-13s-9.7-6.86-14.27-10.67a21.61 21.61 0 0 1-4.91-5.45 33.63 33.63 0 0 1-2.82-6.2 40.23 40.23 0 0 1-.94-23.84 48.81 48.81 0 0 1 22.65-29.45.42.42 0 0 0-.46-.67Z"/><path class="cls-2" d="M210.4 98a59.32 59.32 0 0 0-24.21 26.7c-4.27 9.42-6.21 20.55-3.82 30.75a50.9 50.9 0 0 0 4.83 13c3.15 5.64 8.73 9.28 13.85 13a66.07 66.07 0 0 1 8.84 7.25c2.48 2.54 4.64 5.37 6.9 8.11a48.17 48.17 0 0 0 7.43 7.54 42 42 0 0 0 8.9 5.21 56.15 56.15 0 0 0 37.88 2.88 50.58 50.58 0 0 0 29.26-21.71c6.36-10.18 9.25-22.72 6.95-34.59-1.33-6.89-4.61-13.11-7.69-19.35a85.47 85.47 0 0 1-4.43-10.32c-1.26-3.75-2.27-7.58-3.57-11.32a37.62 37.62 0 0 0-4.32-9.13 24.21 24.21 0 0 0-7.11-6.71 68.17 68.17 0 0 0-20.39-8.15 69.18 69.18 0 0 0-40.55 2.71A63.68 63.68 0 0 0 210.4 98a.42.42 0 0 0 .42.73 67.8 67.8 0 0 1 39.24-8.29 71.12 71.12 0 0 1 20.39 5.08c6.6 2.68 13.12 6 16.88 12.32s5 13.47 7.38 20.18c2.32 6.44 5.86 12.31 8.55 18.58a45.11 45.11 0 0 1 3.86 18.4 48.34 48.34 0 0 1-3.62 17.48 49.44 49.44 0 0 1-24.72 26.15 54.39 54.39 0 0 1-37.23 3.06c-6.6-1.81-13.2-4.73-18.37-9.29s-8.54-10.23-13.3-14.9c-5.14-5.05-11.52-8.54-16.89-13.31a23.6 23.6 0 0 1-5.21-6.42 43.83 43.83 0 0 1-2.94-6.87 45.54 45.54 0 0 1-2.38-10.27 48.51 48.51 0 0 1 1.61-17.63 58 58 0 0 1 26.75-34.25.42.42 0 0 0-.42-.75Z"/><path class="cls-2" d="M206.6 91.07a68.51 68.51 0 0 0-27.91 30.64c-4.9 10.71-7.31 23.56-4.51 35.19a61.23 61.23 0 0 0 5.26 14.5c3.41 6.4 9.4 10.52 15.1 14.76a78.55 78.55 0 0 1 10.07 8.49 116.18 116.18 0 0 1 7.71 9.58 54.06 54.06 0 0 0 7.79 8.62A41 41 0 0 0 230.3 219a67.09 67.09 0 0 0 43.75 3 59.66 59.66 0 0 0 34.44-24.56c7.64-11.64 11.26-26.07 9.07-39.89-1.26-8-4.76-15.28-8.05-22.57a103.8 103.8 0 0 1-4.75-12c-1.31-4.24-2.29-8.59-3.6-12.83a42.08 42.08 0 0 0-4.71-10.75 25.66 25.66 0 0 0-8-7.72 59.11 59.11 0 0 0-10.88-5A97.56 97.56 0 0 0 264.76 83a85.14 85.14 0 0 0-47.7 3.18 75.39 75.39 0 0 0-10.46 4.9.42.42 0 0 0 .43.73c13.81-7.83 30-10.92 45.74-9.71a92.11 92.11 0 0 1 24.31 5.33c7.66 2.77 15.12 6.3 19.38 13.6s5.34 15.67 7.91 23.49c2.5 7.63 6.43 14.68 9.29 22.17A52.8 52.8 0 0 1 317.3 168a56.75 56.75 0 0 1-4.81 20.31 58 58 0 0 1-29 29.4 66 66 0 0 1-43 3.81c-7.6-1.89-15.24-5-21-10.42s-9.41-12.19-14.84-17.68c-5.75-5.82-13-9.9-19-15.42-4.5-4.13-7-9.55-8.91-15.27a50.8 50.8 0 0 1-2.56-11.14 55.78 55.78 0 0 1 1.82-20.22 67 67 0 0 1 31-39.57.42.42 0 0 0-.4-.73Z"/><path class="cls-2" d="M165.6 156.75a78.45 78.45 0 0 0 3.73 12.25 45.49 45.49 0 0 0 4.54 9c2.23 3.27 5.31 5.85 8.36 8.32 3.68 3 7.54 5.7 11.19 8.71a61.31 61.31 0 0 1 9.77 10.08c5.47 7.16 10.05 15 17.82 19.94 7.49 4.79 16.5 7.25 25.24 8.43a79.81 79.81 0 0 0 25.34-.66c16.64-3.12 32.13-11.75 42.59-25.18 9.87-12.67 15.3-29 14.12-45.07-.67-9.14-3.84-17.61-7.38-26-1.91-4.53-3.88-9.05-5.44-13.72-1.4-4.15-2.38-8.43-3.41-12.68-1.89-7.84-4.11-16.11-9.92-22-6.28-6.41-15.77-9.28-24.22-11.57-17.33-4.69-36-5.45-53.44-1.08a80.25 80.25 0 0 0-42.43 26.07c-10.2 12.22-16.83 27.67-17.25 43.69a61.08 61.08 0 0 0 .79 11.46c.09.53.91.31.82-.23-2.58-15.74 1.49-31.9 9.79-45.37a77.42 77.42 0 0 1 37-31.07c16.49-6.64 34.81-8 52.29-5.26a104.64 104.64 0 0 1 25.82 7.25 31.38 31.38 0 0 1 11.16 7.68 32.68 32.68 0 0 1 6 10.68c2.82 7.89 3.94 16.28 6.75 24.18 3.18 9 7.66 17.41 10.25 26.57 4.44 15.7 1.83 32.7-5.95 46.91a67.14 67.14 0 0 1-37.08 31 78.14 78.14 0 0 1-50.06.32 47.41 47.41 0 0 1-12.48-6.15 44.4 44.4 0 0 1-9.55-9.8c-2.57-3.42-4.93-7-7.6-10.33a62.12 62.12 0 0 0-9.68-9.5c-3.57-2.87-7.31-5.54-10.86-8.44a36.82 36.82 0 0 1-8-8.23c-3.33-5.18-5.37-11.2-6.95-17.11-.3-1.11-.58-2.23-.82-3.36-.14-.48-.96-.26-.85.27Z"/></g><g class="cls-1"><path class="cls-2" d="M142.66 177.2a102.5 102.5 0 0 0 8.06 15.31 57.06 57.06 0 0 0 8.45 10.69c3.89 3.69 8.82 6.27 13.54 8.72 5.5 2.87 11.15 5.45 16.54 8.51a80.26 80.26 0 0 1 14.86 10.91c4.38 4 8.53 8.32 13.17 12.07a51.16 51.16 0 0 0 15.37 8.69c11 3.85 23.24 4.56 34.79 3.63a104.26 104.26 0 0 0 32-7.8c20.25-8.53 37.45-23.7 47.06-43.6 9.36-19.38 11.73-42.38 5.11-63-3.74-11.63-10.62-21.68-17.34-31.76a164.76 164.76 0 0 1-9.75-16c-2.48-4.84-4.6-9.86-6.9-14.79-4.38-9.39-9.75-18.9-19-24.26-5.25-3-11.19-4.6-17.12-5.65a148.94 148.94 0 0 0-17-2c-22.59-1.33-45.68 2.36-66.28 11.89-20 9.26-36.91 24.1-47.73 43.35-10.19 18.13-15 39.57-11.73 60.24a78.46 78.46 0 0 0 3.87 14.86c.25.66 1.31.38 1.07-.29-7.2-19.58-6-41.29 1.36-60.63a100.89 100.89 0 0 1 39.55-48.77c18.74-12.14 40.89-18.41 63.09-19.6A147 147 0 0 1 281.63 50c6 1.08 11.95 2.7 17.17 5.9A37.36 37.36 0 0 1 309.94 67c5.88 8.7 9.23 18.77 14.09 28 5.73 10.9 13.49 20.56 19.59 31.25a78.83 78.83 0 0 1 10.25 31.55 87.17 87.17 0 0 1-17.05 60.32 89 89 0 0 1-24.19 21.81A102.16 102.16 0 0 1 250 254.54a70.06 70.06 0 0 1-18.31-3.95 52.26 52.26 0 0 1-15.54-9.59c-4.41-3.8-8.46-8-12.8-11.87a79.19 79.19 0 0 0-14.1-10c-5.29-2.95-10.8-5.48-16.17-8.29-4.67-2.43-9.54-5-13.35-8.66-6-5.81-10.31-13.42-13.95-20.86-.52-1.06-1-2.13-1.51-3.2-.15-.33-.29-.65-.43-1-.05-.11-.17-.39-.11-.26-.27-.6-1.34-.31-1.07.34Z"/></g><path class="cls-3" d="M64.43 200.08c-18.42 0-32.82-9.15-33.43-26.47h22.21c.61 6.59 4.75 9.76 10.61 9.76 6.1 0 10-3.05 10-8.05 0-15.86-42.82-7.32-42.57-37.7 0-16.22 13.29-25.25 31.23-25.25 18.66 0 31.23 9.27 32.08 25.62H72c-.36-5.49-4.27-8.78-9.88-8.91-5-.12-8.78 2.44-8.78 7.81 0 14.88 42.33 8.17 42.33 36.84-.01 14.4-11.23 26.35-31.24 26.35ZM109.46 148.48h-8.3v-17.32h8.3v-16.59h20.86v16.59H144v17.32h-13.68v27.33c0 4 1.71 5.73 6.34 5.73h7.45v17.69h-10.62c-14.15 0-24-6-24-23.67ZM175.72 199.23h-20.87v-68.07h20.87v11.34c4.75-7.19 12.2-12.07 21.34-12.07v22.08h-5.73c-9.88 0-15.61 3.41-15.61 15.12ZM281 101.65h20.87v97.58H281ZM315 101.65h20.86v97.58H315ZM347 112.86c0-6.35 5-11.35 12.45-11.35s12.32 5 12.32 11.35-5 11.22-12.32 11.22-12.45-5-12.45-11.22Zm1.95 18.3h20.87v68.07H349ZM430 162.27c0-9.28-5.13-14.4-13.06-14.4s-13.05 5.12-13.05 14.4v37H383v-68.11h20.86v9c4.15-5.73 11.47-9.75 20.62-9.75 15.73 0 26.22 10.73 26.22 29v39.77H430ZM235.92 200.21c-20 0-35.13-13.42-35.13-35s15.49-35 35.38-35 35.37 13.42 35.37 35-15.61 35-35.62 35Zm0-18.06c7.44 0 14.4-5.49 14.4-17s-6.84-16.95-14.15-16.95c-7.57 0-14.16 5.36-14.16 16.95s6.35 17 13.91 17Z"/><path class="cls-2" d="M458.89 221.5H30.3v-11h428.59a4.42 4.42 0 0 0 4.42-4.42v-48.23l5.61-4.77 5.39 4.77v48.23a15.44 15.44 0 0 1-15.42 15.42Z"/><path class="cls-3" d="M492.38 113.32a23.54 23.54 0 1 0-38.56 18.11l15.1 14.66 16.43-15.93h-.07a23.45 23.45 0 0 0 7.1-16.84Zm-27.45-10.16H467v-.89a4.46 4.46 0 0 1 4.46-4.46h2.86v2.8h-2.86a1.66 1.66 0 0 0-1.67 1.66v.89h2.7a10.05 10.05 0 0 1 7.4 3.23 3 3 0 0 1-3.34 0 5.81 5.81 0 0 0-6.18 0 3 3 0 0 1-3.34 0 5.81 5.81 0 0 0-6.18 0 3 3 0 0 1-3.34 0 10.08 10.08 0 0 1 7.42-3.23Zm-9 5.53.19.12a5.79 5.79 0 0 0 6.17 0 3 3 0 0 1 3.34 0 5.81 5.81 0 0 0 6.18 0 3 3 0 0 1 3.34 0 5.79 5.79 0 0 0 6.17 0 1.57 1.57 0 0 1 .21-.12 10.72 10.72 0 0 1 .79 2.09 5.54 5.54 0 0 0-2.41.85 3 3 0 0 1-3.34 0 5.81 5.81 0 0 0-6.18 0 3 3 0 0 1-3.34 0 5.81 5.81 0 0 0-6.18 0 3 3 0 0 1-3.34 0 5.44 5.44 0 0 0-2.39-.85 10.11 10.11 0 0 1 .78-2.09Zm12.8 23.18s-11.36-5.83-11.55-13.1h23.1c-.2 7.23-11.56 13.1-11.56 13.1Zm13.9-18.28a2.78 2.78 0 0 1-2.78 2.78H457.6a2.78 2.78 0 0 1-2.78-2.78 2.82 2.82 0 0 1 1.29.49 5.79 5.79 0 0 0 6.17 0 3 3 0 0 1 3.34 0 5.81 5.81 0 0 0 6.18 0 3 3 0 0 1 3.34 0 5.79 5.79 0 0 0 6.17 0 2.71 2.71 0 0 1 1.31-.49Z"/></svg>